<svg width="92" height="116" viewBox="0 0 92 116" fill="none" xmlns="http://www.w3.org/2000/svg">
<path d="M10.2774 52.0739L4.67181 60.9781L13.576 66.5837L19.1816 57.6795L10.2774 52.0739Z" fill="#2C5DFE"/>
<path d="M13.5755 66.5837L8.90424 74.0039L17.8084 79.6094L22.4797 72.1893L13.5755 66.5837Z" fill="#2C5DFE"/>
<path d="M44.4102 73.5619L38.8046 82.4661L47.7088 88.0717L53.3144 79.1675L44.4102 73.5619Z" fill="#2C5DFE"/>
<path d="M47.7083 88.0717L43.037 95.4919L51.9412 101.097L56.6125 93.6773L47.7083 88.0717Z" fill="#2C5DFE"/>
<path d="M69.6387 89.4444L64.0331 98.3486L72.9373 103.954L78.5429 95.05L69.6387 89.4444Z" fill="#2C5DFE"/>
<path d="M81.8412 109.56L77.1699 116.98L86.0741 122.585L90.7454 115.165L81.8412 109.56Z" fill="#2C5DFE"/>
<path d="M96.3516 106.261L90.746 115.165L98.1662 119.837L103.772 110.932L96.3516 106.261Z" fill="#2C5DFE"/>
<path d="M30.3926 39.8711L24.787 48.7753L33.6912 54.3808L39.2968 45.4766L30.3926 39.8711Z" fill="#2C5DFE"/>
<path d="M55.6211 55.7535L50.0156 64.6577L58.9198 70.2632L64.5253 61.359L55.6211 55.7535Z" fill="#2C5DFE"/>
<path d="M33.6914 54.3809L28.0859 63.2851L35.506 67.9564L41.1116 59.0522L33.6914 54.3809Z" fill="#2C5DFE"/>
<path d="M67.8242 75.8688L62.2187 84.773L69.6389 89.4443L75.2444 80.5401L67.8242 75.8688Z" fill="#2C5DFE"/>
<path d="M80.8496 71.6359L75.2441 80.5401L84.1483 86.1457L89.7538 77.2415L80.8496 71.6359Z" fill="#2C5DFE"/>
<path d="M26.1595 26.8453L21.4882 34.2655L30.3924 39.8711L35.0637 32.4509L26.1595 26.8453Z" fill="#2C5DFE"/>
<path d="M51.388 42.7278L46.7167 50.1479L55.6209 55.7535L60.2922 48.3333L51.388 42.7278Z" fill="#2C5DFE"/>
<path d="M78.1009 59.5445L73.4296 66.9646L80.8498 71.6359L85.5211 64.2158L78.1009 59.5445Z" fill="#2C5DFE"/>
<path d="M74.8027 45.0347L83.7069 50.6402L78.1013 59.5444L60.2929 48.3333L71.504 30.5249L80.4082 36.1305L74.8027 45.0347Z" fill="#2C5DFE"/>
<path d="M91.127 55.3116L85.5214 64.2158L103.33 75.4269L108.935 66.5227L91.127 55.3116Z" fill="#2C5DFE"/>
<path d="M89.3125 41.7361L83.707 50.6403L91.1271 55.3116L96.7327 46.4074L89.3125 41.7361Z" fill="#2C5DFE"/>
<path d="M135.791 23.0401L130.319 31.7323L121.786 26.3603L116.314 35.0525L124.847 40.4245L130.319 31.7323L138.852 37.1043L144.325 28.4121L135.791 23.0401ZM122.436 63.1809L127.908 54.4887L119.375 49.1167L113.903 57.8089L96.8366 47.0649L102.309 38.3727L93.7755 33.0007L99.2476 24.3085L107.781 29.6805L113.253 20.9883L104.72 15.6163L110.192 6.92414L101.659 1.55215L96.1865 10.2443L104.72 15.6163L99.2476 24.3085L90.7144 18.9365L85.2423 27.6287L76.7091 22.2567L71.237 30.9489L62.7038 25.5769L57.2318 34.2691L48.6986 28.8971L43.2265 37.5893L34.6933 32.2173L40.1654 23.5251L31.6322 18.1531L42.5764 0.76876L51.1096 6.14075L45.6375 14.8329L54.1707 20.2049L59.6427 11.5127L68.1759 16.8847L73.648 8.19254L65.1148 2.82055L59.6427 11.5127L51.1096 6.14075L56.5817 -2.55144L48.0485 -7.92343L53.5206 -16.6156L62.0537 -11.2436L67.5258 -19.9358L58.9926 -25.3078L64.4647 -34L81.5311 -23.256L76.059 -14.5638L84.5922 -9.19184L79.1201 -0.499648L87.6533 4.87235L93.1254 -3.81985L84.5922 -9.19184L90.0643 -17.884L124.197 3.60394L118.725 12.2961L127.258 17.6681L132.73 8.97593L158.33 25.0919L152.858 33.7841L161.391 39.1561L150.447 56.5405L141.914 51.1685L136.441 59.8607L144.975 65.2327L139.503 73.9249L130.969 68.5529L125.497 77.2451L108.431 66.5011L113.903 57.8089L122.436 63.1809Z" fill="#2C5DFE"/>
<path d="M86.0137 27.2263L80.4081 36.1305L89.3123 41.7361L94.9179 32.8319L86.0137 27.2263Z" fill="#2C5DFE"/>
</svg>
