<svg width="100" height="100" viewBox="0 0 100 100" fill="none" xmlns="http://www.w3.org/2000/svg">
<g filter="url(#filter0_d_1_6289)">
<rect x="30" y="20" width="40" height="40" rx="20" fill="#2C5DFE"/>
<path fill-rule="evenodd" clip-rule="evenodd" d="M50 30.6667C44.848 30.6667 40.6667 34.848 40.6667 40C40.6667 45.152 44.848 49.3334 50 49.3334C55.152 49.3334 59.3333 45.152 59.3333 40C59.3333 34.848 55.152 30.6667 50 30.6667ZM53.7333 40.9334H50.9333V43.7334C50.9333 44.2467 50.5133 44.6667 50 44.6667C49.4867 44.6667 49.0667 44.2467 49.0667 43.7334V40.9334H46.2667C45.7533 40.9334 45.3333 40.5134 45.3333 40C45.3333 39.4867 45.7533 39.0667 46.2667 39.0667H49.0667V36.2667C49.0667 35.7534 49.4867 35.3334 50 35.3334C50.5133 35.3334 50.9333 35.7534 50.9333 36.2667V39.0667H53.7333C54.2467 39.0667 54.6667 39.4867 54.6667 40C54.6667 40.5134 54.2467 40.9334 53.7333 40.9334Z" fill="white"/>
</g>
<defs>
<filter id="filter0_d_1_6289" x="0" y="0" width="100" height="100" filterUnits="userSpaceOnUse" color-interpolation-filters="sRGB">
<feFlood flood-opacity="0" result="BackgroundImageFix"/>
<feColorMatrix in="SourceAlpha" type="matrix" values="0 0 0 0 0 0 0 0 0 0 0 0 0 0 0 0 0 0 127 0" result="hardAlpha"/>
<feOffset dy="10"/>
<feGaussianBlur stdDeviation="15"/>
<feColorMatrix type="matrix" values="0 0 0 0 0.172549 0 0 0 0 0.364706 0 0 0 0 0.996078 0 0 0 0.3 0"/>
<feBlend mode="normal" in2="BackgroundImageFix" result="effect1_dropShadow_1_6289"/>
<feBlend mode="normal" in="SourceGraphic" in2="effect1_dropShadow_1_6289" result="shape"/>
</filter>
</defs>
</svg>
