<svg width="139" height="32" viewBox="0 0 139 32" fill="none" xmlns="http://www.w3.org/2000/svg">
<path d="M8.55859 18.1697C8.83645 18.5459 9.11861 18.9172 9.4057 19.2854C9.11739 18.9178 8.83522 18.5453 8.55859 18.1697Z" fill="url(#paint0_linear_1_6224)"/>
<path d="M9.8418 19.8356C10.0613 20.1092 10.2832 20.3803 10.5082 20.6489C10.2826 20.3803 10.0613 20.1092 9.8418 19.8356Z" fill="url(#paint1_linear_1_6224)"/>
<path d="M10.9607 21.1831C10.8076 21.0061 10.657 20.8284 10.5076 20.6489C10.6576 20.8284 10.8088 21.0061 10.9607 21.1831Z" fill="url(#paint2_linear_1_6224)"/>
<path d="M17.6531 27.6852C17.6727 27.7012 17.6924 27.7172 17.7102 27.7325C17.6912 27.7184 17.6721 27.7018 17.6531 27.6852C16.8576 27.0422 16.0652 26.3611 15.3005 25.6615C15.2181 25.5853 15.1351 25.5084 15.0527 25.4316C15.1351 25.5078 15.2187 25.5846 15.3011 25.6609C16.0658 26.3604 16.8582 27.0416 17.6531 27.6852Z" fill="url(#paint3_linear_1_6224)"/>
<path d="M17.7812 21.6534C17.9171 21.7819 18.0523 21.9091 18.1857 22.0327C18.0523 21.9097 17.9171 21.7825 17.7812 21.6534Z" fill="url(#paint4_linear_1_6224)"/>
<path d="M18.3191 22.155C18.6824 22.4906 19.0567 22.825 19.4391 23.1558C19.0561 22.8257 18.6824 22.4919 18.3191 22.155C18.2742 22.1156 18.2305 22.0745 18.1857 22.0327C18.2305 22.0745 18.2754 22.115 18.3191 22.155Z" fill="url(#paint5_linear_1_6224)"/>
<path d="M23.6313 26.3832C22.957 25.9215 22.2863 25.4402 21.6347 24.941C21.2812 24.6718 20.9388 24.4007 20.6111 24.1345C20.2128 23.8124 19.8218 23.4853 19.4395 23.1552C19.8224 23.4853 20.214 23.8124 20.6118 24.1339C20.9394 24.4001 21.2818 24.6705 21.6353 24.9404C22.2869 25.4396 22.957 25.9215 23.6313 26.3832Z" fill="url(#paint6_linear_1_6224)"/>
<path d="M43.2668 11.5884L42.6798 12.6414C41.3366 15.0518 39.7899 17.3693 38.0779 19.5332C37.3894 20.4061 36.6714 21.2575 35.9447 22.064C34.0981 24.1185 32.0707 26.0402 29.9197 27.7737C29.0628 28.4665 28.1628 29.1452 27.2463 29.7913C26.2504 30.4927 25.2275 31.1627 24.207 31.7787L23.84 32L23.473 31.7787C22.6646 31.2906 21.8636 30.7761 21.0885 30.2455C20.9385 30.1435 20.7885 30.0402 20.6397 29.9357C20.5702 29.8872 20.5002 29.8386 20.4313 29.7894C20.2998 29.6966 20.1682 29.6031 20.0366 29.5091C19.5983 29.1944 19.1656 28.8722 18.7396 28.5446C18.4076 28.2895 18.0806 28.0319 17.7591 27.7725C17.7437 27.7602 17.7265 27.746 17.708 27.7319C17.6902 27.7165 17.6705 27.7005 17.6509 27.6846C17.1376 27.269 16.6255 26.8375 16.1208 26.3948C15.8442 26.1533 15.57 25.908 15.2989 25.6602C15.2165 25.584 15.1329 25.5072 15.0505 25.431C15.0499 25.431 15.0499 25.431 15.0499 25.431C14.9755 25.3615 14.9018 25.2926 14.8286 25.2232C14.828 25.2226 14.828 25.2226 14.8274 25.2219C14.8225 25.2176 14.8169 25.2121 14.812 25.2072C14.8096 25.2047 14.8071 25.2029 14.8046 25.2004L14.185 24.566L13.2297 23.588L13.2272 23.5855L12.7816 23.1288L11.6535 21.9731C11.498 21.7991 11.3431 21.6245 11.1894 21.4481C11.1138 21.3602 11.0363 21.2717 10.9601 21.1825C10.8083 21.0055 10.657 20.8278 10.507 20.6483C10.507 20.6483 10.507 20.6483 10.507 20.6477C10.3945 20.5131 10.2827 20.3784 10.1714 20.2432C10.0601 20.1073 9.95009 19.9715 9.84067 19.835C9.69497 19.6524 9.5499 19.4692 9.40605 19.2854C9.11897 18.9172 8.83681 18.5453 8.55895 18.1697V18.1691C7.93561 17.3244 7.33808 16.4607 6.76823 15.5792C6.60778 15.3321 6.44918 15.0831 6.29365 14.8329C5.89223 14.1911 5.50618 13.5408 5.13488 12.8824C5.08816 12.8012 5.0439 12.7219 4.99902 12.6414C4.43654 11.6326 3.89803 10.5839 3.40071 9.52715C2.55176 7.73028 1.80363 5.87133 1.17783 4.00438C0.835424 2.99007 0.517607 1.94133 0.238517 0.891365L0 0H0.922102C3.14068 0 5.13488 1.39853 5.88854 3.47879L5.90944 3.5378C6.56967 5.36295 7.35468 7.16781 8.24113 8.90197C8.68005 9.76199 9.1577 10.6288 9.66547 11.4832C9.75338 11.632 9.84251 11.7814 9.93165 11.9283C10.153 12.2935 10.381 12.6561 10.6128 13.0152C10.8169 13.3311 11.0253 13.6453 11.238 13.9563C11.6062 14.4979 11.9861 15.0315 12.3783 15.5577C12.7268 16.0267 13.0852 16.4909 13.4516 16.947C13.6354 17.1751 13.8205 17.4019 14.008 17.6269V17.6275C14.2225 17.8845 14.4389 18.139 14.6583 18.3916L14.659 18.391L15.1612 18.916L15.7692 19.5516L15.9591 19.7496L15.9763 19.768L17.78 21.6522L17.7793 21.6528C17.7806 21.654 17.7812 21.6546 17.7824 21.6559C17.8187 21.6897 17.855 21.7241 17.8906 21.7585C17.9896 21.8507 18.0873 21.9429 18.1845 22.0321C18.1851 22.0321 18.1851 22.0321 18.1851 22.0321C18.2299 22.0739 18.2736 22.1145 18.3179 22.155C18.3185 22.1556 18.3191 22.1563 18.3197 22.1563C18.3222 22.1593 18.3246 22.1612 18.3271 22.163C18.5969 22.4132 18.873 22.661 19.1533 22.9068C19.2473 22.9898 19.3426 23.0728 19.4385 23.1552C19.5338 23.2376 19.6303 23.3206 19.7268 23.4023C19.7815 23.449 19.8375 23.4964 19.8928 23.5425L20.0182 23.6482H20.0188C20.2143 23.8117 20.411 23.974 20.6102 24.1351C20.9379 24.4013 21.2803 24.6717 21.6337 24.9416C22.1132 25.3086 22.6026 25.6664 23.0962 26.0131C23.1982 26.0856 23.3009 26.1576 23.4036 26.2283C23.4792 26.2799 23.5542 26.3322 23.6298 26.3838C23.6992 26.4317 23.7705 26.4797 23.8394 26.5264C24.5918 26.018 25.3314 25.485 26.0426 24.941C28.2175 23.2806 30.2609 21.4173 32.1156 19.401C32.8324 18.6258 33.5325 17.8138 34.1971 16.9863C34.7682 16.2757 35.3263 15.5399 35.8531 14.7991C37.2873 12.7883 39.5981 11.5884 42.0349 11.5884H43.2668Z" fill="url(#paint7_linear_1_6224)"/>
<path d="M14.0086 17.6281C12.508 15.8294 11.1421 13.9182 9.93225 11.9289C9.84312 11.7814 9.75398 11.6326 9.66608 11.4838H9.66669C9.7546 11.632 9.84373 11.7814 9.93287 11.9283C11.1427 13.9182 12.5092 15.8294 14.0086 17.6281Z" fill="url(#paint8_linear_1_6224)"/>
<path d="M14.6588 18.3923C14.4381 18.1409 14.2217 17.8864 14.0078 17.6288C14.2224 17.8851 14.44 18.1396 14.6588 18.3923Z" fill="url(#paint9_linear_1_6224)"/>
<path d="M15.9604 19.7508L15.7705 19.5529L15.1625 18.9173L14.6603 18.3923L14.6596 18.3929C14.4396 18.1408 14.2232 17.8863 14.0093 17.6288V17.6282C13.8218 17.4032 13.6367 17.1769 13.4529 16.9483C13.0865 16.4915 12.7282 16.028 12.3796 15.559C11.988 15.0327 11.6081 14.4985 11.2393 13.9576L6.76953 15.5799C7.33939 16.4608 7.93691 17.3251 8.56025 18.1697V18.1704C8.83811 18.5466 9.12027 18.9179 9.40735 19.2861C9.5512 19.4705 9.69628 19.6531 9.84197 19.8357C9.9514 19.9721 10.062 20.1086 10.1727 20.2439C10.2834 20.3791 10.3952 20.5137 10.5083 20.6483C10.5083 20.649 10.5083 20.649 10.5083 20.649C10.6583 20.8279 10.8096 21.0061 10.9614 21.1832C11.0376 21.2723 11.1151 21.3608 11.1907 21.4487C11.345 21.6252 11.4993 21.7997 11.6548 21.9737L12.7829 23.1294L13.2285 23.5862L12.8234 24.1554L13.231 23.5886L15.9776 19.7693L15.9604 19.7508Z" fill="url(#paint10_linear_1_6224)"/>
<path d="M23.0975 26.0131L20.0374 29.5103C19.5991 29.1956 19.1663 28.8734 18.7403 28.5458C18.4083 28.2907 18.0813 28.0331 17.7598 27.7737C17.7444 27.7614 17.7272 27.7472 17.7088 27.7331C17.6909 27.7177 17.6713 27.7018 17.6516 27.6858C17.1383 27.2702 16.6262 26.8387 16.1215 26.3961C15.8449 26.1545 15.5707 25.9092 15.2996 25.6615C15.2173 25.5852 15.1336 25.5084 15.0513 25.4322C15.0507 25.4322 15.0507 25.4322 15.0507 25.4322C14.9763 25.3627 14.9025 25.2938 14.8294 25.2244C14.8287 25.2238 14.8287 25.2238 14.8281 25.2232L18.3204 22.1575C18.3229 22.1605 18.3253 22.1624 18.3278 22.1642C18.5977 22.4144 18.8737 22.6622 19.154 22.9081C19.2481 22.991 19.3433 23.074 19.4392 23.1564C19.5345 23.2388 19.631 23.3218 19.7276 23.4035C19.7823 23.4503 19.8382 23.4976 19.8935 23.5437L20.0189 23.6494H20.0196C20.215 23.813 20.4118 23.9752 20.6109 24.1363C20.9386 24.4025 21.281 24.673 21.6345 24.9428C22.1146 25.3086 22.6039 25.6664 23.0975 26.0131Z" fill="url(#paint11_linear_1_6224)"/>
<path d="M47.6797 0L47.4418 0.891365C47.1639 1.93457 46.848 2.98085 46.5037 4.00561C46.2812 4.66768 46.0414 5.33221 45.7949 5.97768C44.89 8.3444 42.5872 9.93411 40.0681 9.93411H38.9093L39.438 8.90259C40.1707 7.47026 40.8334 5.98997 41.4143 4.48756H32.1767L31.7513 4.99472L27.2146 10.4056C27.3959 10.5888 27.5754 10.7683 27.7543 10.941C28.0518 11.2312 28.3481 11.5121 28.6328 11.7771C29.0766 12.1877 29.5309 12.5965 29.9876 12.9887C30.1149 13.0975 30.2428 13.207 30.3718 13.3145C31.1452 13.9662 31.6044 14.8815 31.6634 15.8933C31.723 16.8966 31.3622 17.8925 30.6743 18.624L30.2409 19.0863L29.7338 18.7082C28.8074 18.0154 27.8889 17.2796 27.0049 16.5191C26.2279 15.8546 25.4534 15.1489 24.7009 14.4204C24.5749 14.2975 24.4434 14.1696 24.3057 14.0338C24.2817 14.0098 24.2577 13.9858 24.2319 13.9618L21.765 16.8536H24.3997L18.328 22.1649L14.8295 25.225L7.49451 31.641L12.8236 24.1566L13.2288 23.5874L15.96 19.7514L16.5692 18.8957L17.9837 16.9089H16.3664L21.1619 10.6374C20.8969 10.3226 20.6289 9.99927 20.3646 9.66978C19.038 8.0229 17.803 6.28013 16.6915 4.48818H11.5401C9.31043 4.48818 7.37033 3.0583 6.71011 0.928863L6.39844 0.00246134L7.38263 0.000615335H19.4161L19.6201 0.361464C20.1937 1.38192 20.8189 2.39931 21.4791 3.38535C22.3133 4.63449 23.2188 5.86088 24.1809 7.03625L28.0549 2.41776L30.0811 0.000615335H47.6797V0Z" fill="url(#paint12_linear_1_6224)"/>
<path d="M70.8896 18.763V22.8104H53.8418V2.12891H57.8892V18.763H70.8896Z" fill="white"/>
<path d="M91.0093 7.47638V22.8103H80.225C79.2206 22.8103 78.2751 22.6185 77.3886 22.2343C76.5022 21.8501 75.7344 21.3331 75.084 20.6833C74.4342 20.0336 73.9172 19.2651 73.533 18.3787C73.1488 17.4922 72.957 16.5468 72.957 15.5423V14.7444C72.957 13.7399 73.1488 12.7945 73.533 11.908C73.9172 11.0216 74.4342 10.2537 75.084 9.60336C75.7338 8.95358 76.5022 8.43659 77.3886 8.05239C78.2751 7.66818 79.2206 7.47638 80.225 7.47638H91.0093ZM86.9613 11.5244H80.225C79.7916 11.5244 79.3779 11.6086 78.9839 11.7758C78.5898 11.9437 78.245 12.1748 77.9499 12.4699C77.6548 12.7649 77.4225 13.1049 77.2559 13.4891C77.088 13.8733 77.0044 14.2919 77.0044 14.745V15.5429C77.0044 15.9763 77.088 16.39 77.2559 16.7841C77.4231 17.1781 77.6548 17.523 77.9499 17.8181C78.2456 18.1137 78.5898 18.3455 78.9839 18.5121C79.3779 18.6799 79.791 18.7635 80.225 18.7635H86.9613V11.5244Z" fill="white"/>
<path d="M112.903 7.47638V22.8103C112.883 23.7951 112.676 24.716 112.283 25.5729C111.889 26.4299 111.362 27.178 110.702 27.8186C110.042 28.4585 109.279 28.9607 108.413 29.3253C107.546 29.6898 106.62 29.8718 105.635 29.8718H96.5943V25.8244H105.635C106.088 25.8244 106.507 25.7401 106.891 25.5729C107.275 25.4051 107.615 25.174 107.91 24.8783C108.206 24.5826 108.437 24.2433 108.605 23.859C108.772 23.4748 108.856 23.0562 108.856 22.6032V11.5238H101.854C101.421 11.5238 101.007 11.608 100.613 11.7752C100.219 11.943 99.8739 12.1742 99.5788 12.4693C99.2837 12.7643 99.0514 13.1043 98.8848 13.4885C98.7169 13.8727 98.6333 14.2913 98.6333 14.7444V15.5423C98.6333 15.9757 98.7169 16.3894 98.8848 16.7835C99.052 17.1775 99.2837 17.5224 99.5788 17.8174C99.8745 18.1131 100.219 18.3449 100.613 18.5115C101.007 18.6793 101.42 18.7629 101.854 18.7629H106.995V22.8103H101.854C100.849 22.8103 99.904 22.6185 99.0176 22.2343C98.1311 21.8501 97.3633 21.3331 96.7129 20.6833C96.0631 20.0336 95.5462 19.2651 95.1619 18.3787C94.7777 17.4922 94.5859 16.5468 94.5859 15.5423V14.7444C94.5859 13.7399 94.7777 12.7945 95.1619 11.908C95.5462 11.0216 96.0631 10.2537 96.7129 9.60336C97.3627 8.95358 98.1311 8.43659 99.0176 8.05239C99.904 7.66818 100.849 7.47638 101.854 7.47638H112.903Z" fill="white"/>
<path d="M115.561 22.8103L124.66 12.4692L115.561 2.12817H120.14L126.936 9.86891L133.731 2.12817H138.311L129.24 12.4692L138.311 22.8103H133.731L126.936 15.0696L120.14 22.8103H115.561Z" fill="white"/>
<defs>
<linearGradient id="paint0_linear_1_6224" x1="8.98208" y1="19.168" x2="8.98208" y2="18.1672" gradientUnits="userSpaceOnUse">
<stop stop-color="#2C5DFE"/>
<stop offset="1" stop-color="#2DADFC"/>
</linearGradient>
<linearGradient id="paint1_linear_1_6224" x1="10.1749" y1="20.5627" x2="10.1749" y2="19.8336" gradientUnits="userSpaceOnUse">
<stop stop-color="#2C5DFE"/>
<stop offset="1" stop-color="#2DADFC"/>
</linearGradient>
<linearGradient id="paint2_linear_1_6224" x1="10.7341" y1="21.1268" x2="10.7341" y2="20.6479" gradientUnits="userSpaceOnUse">
<stop stop-color="#2C5DFE"/>
<stop offset="1" stop-color="#2DADFC"/>
</linearGradient>
<linearGradient id="paint3_linear_1_6224" x1="16.3811" y1="27.4897" x2="16.3811" y2="25.4259" gradientUnits="userSpaceOnUse">
<stop stop-color="#2C5DFE"/>
<stop offset="1" stop-color="#2DADFC"/>
</linearGradient>
<linearGradient id="paint4_linear_1_6224" x1="17.7425" y1="21.6536" x2="18.0359" y2="21.8844" gradientUnits="userSpaceOnUse">
<stop stop-color="#072FA0"/>
<stop offset="1" stop-color="#072FA0" stop-opacity="0"/>
</linearGradient>
<linearGradient id="paint5_linear_1_6224" x1="18.0798" y1="22.0182" x2="18.9713" y2="22.7192" gradientUnits="userSpaceOnUse">
<stop stop-color="#072FA0"/>
<stop offset="1" stop-color="#072FA0" stop-opacity="0"/>
</linearGradient>
<linearGradient id="paint6_linear_1_6224" x1="19.2111" y1="22.9744" x2="22.0199" y2="25.183" gradientUnits="userSpaceOnUse">
<stop stop-color="#072FA0"/>
<stop offset="1" stop-color="#072FA0" stop-opacity="0"/>
</linearGradient>
<linearGradient id="paint7_linear_1_6224" x1="21.6336" y1="13.7477" x2="21.6336" y2="35.1956" gradientUnits="userSpaceOnUse">
<stop stop-color="#2C5DFE"/>
<stop offset="1" stop-color="#2DADFC"/>
</linearGradient>
<linearGradient id="paint8_linear_1_6224" x1="14.9123" y1="19.6751" x2="11.394" y2="13.8195" gradientUnits="userSpaceOnUse">
<stop stop-color="#072FA0"/>
<stop offset="1" stop-color="#072FA0" stop-opacity="0"/>
</linearGradient>
<linearGradient id="paint9_linear_1_6224" x1="14.7392" y1="18.6858" x2="14.2751" y2="17.9132" gradientUnits="userSpaceOnUse">
<stop stop-color="#072FA0"/>
<stop offset="1" stop-color="#072FA0" stop-opacity="0"/>
</linearGradient>
<linearGradient id="paint10_linear_1_6224" x1="15.8899" y1="22.9149" x2="9.84825" y2="16.8732" gradientUnits="userSpaceOnUse">
<stop stop-color="#072FA0"/>
<stop offset="1" stop-color="#072FA0" stop-opacity="0"/>
</linearGradient>
<linearGradient id="paint11_linear_1_6224" x1="14.3228" y1="20.9772" x2="19.9829" y2="26.6373" gradientUnits="userSpaceOnUse">
<stop stop-color="#072FA0"/>
<stop offset="1" stop-color="#072FA0" stop-opacity="0"/>
</linearGradient>
<linearGradient id="paint12_linear_1_6224" x1="27.0397" y1="-1.95993" x2="27.0397" y2="18.9422" gradientUnits="userSpaceOnUse">
<stop stop-color="#2C5DFE"/>
<stop offset="1" stop-color="#2DADFC"/>
</linearGradient>
</defs>
</svg>
