<svg width="51" height="49" viewBox="0 0 51 49" fill="none" xmlns="http://www.w3.org/2000/svg">
<path d="M21.7029 4.05829L20.8786 4.27915L17.7277 19.6173L32.1007 15.7661L21.7029 4.05829Z" fill="#2C5DFE"/>
<path d="M36.4023 14.6135L49.6934 11.0521L41.5042 1.81697C40.1591 0.300086 38.085 -0.331283 36.1274 0.193256L26.0045 2.90568L36.4023 14.6135Z" fill="#2C5DFE"/>
<path d="M50.1105 15.0815L27.8813 21.0377L35.0248 47.6973L50.1105 15.0815Z" fill="#2C5DFE"/>
<path d="M31.161 48.7326L24.0176 22.073L1.78847 28.0293L31.161 48.7326Z" fill="#2C5DFE"/>
<path d="M13.4261 20.7699L16.5513 5.43866L6.45413 8.14418C4.49652 8.66872 3.016 10.2525 2.60955 12.2387L0.135002 24.3312L13.4261 20.7699Z" fill="#2C5DFE"/>
</svg>
